# xmcd
#
# Track frame offsets: 
#        150
#        16128
#        29757
#        38989
#        56586
#        72244
#        86197
#        102171
#        115212
#        131241
#        145850
#        159668
#        175144
#        190201
#        206599
#        218675
#        235282
#        251872
#        271995
#        287302
#        304370
#
# Disc length: 4264 seconds
#
# Revision: 0
# Processed by: cddbd v1.5.2PL0 Copyright (c) Steve Scherf et al.
# Submitted via: ExactAudioCopy v0.95a3
#
DISCID=3d10a615
DTITLE=Various Artist - Winterträume
DYEAR=2010
DGENRE=Folk
TTITLE0=ANDREA - Winterwelt
TTITLE1=Gaby Baginsky - Weihnachtszeit, Schlittenzeit
TTITLE2=Uschi Bauer - Gedanken im Advent
TTITLE3=Osttiroler Bergvagabunden - Das Ave Maria der Heimat
TTITLE4=Astrid Breck - 1000 süsse Weihnachtsküsse
TTITLE5=Petra Frey - Winterzauberzeit
TTITLE6=Gitty - Wie einst im Dezember
TTITLE7=Ernst Holzmann - Der Weihnachtsstern wärmt unser Herz
TTITLE8=Peter Paul Hassler - Schau in Kinderaugen
TTITLE9=Patricia Larrass - Es wird bald Weihnachten sein
TTITLE10=Mark and Stella - Schau der Weihnachtsbaum leuchtet wieder
TTITLE11=Mosaique - Weihnachtszeit
TTITLE12=Melissa Naschenweng - Stille Zeit
TTITLE13=Hans Nehring - Laßt die Herzen jubilieren
TTITLE14=Kevin Pabst - Feliz Navidad
TTITLE15=Edith Prock - Der Winter ist gegangen
TTITLE16=Sandy Rose - Sternenglanz und Kerzenlicht
TTITLE17=Hein Simons - Die Hirten ruhten bei Nachte
TTITLE18=Ronny Söllner - Weihnachtszeit, Winterzeit
TTITLE19=Ready Teddy - Ein Kind ward geboren
TTITLE20=Andreas Zaron - Ich glaub im Himmel fehlt ein Engel
EXTD=
EXTT0=
EXTT1=
EXTT2=
EXTT3=
EXTT4=
EXTT5=
EXTT6=
EXTT7=
EXTT8=
EXTT9=
EXTT10=
EXTT11=
EXTT12=
EXTT13=
EXTT14=
EXTT15=
EXTT16=
EXTT17=
EXTT18=
EXTT19=
EXTT20=
PLAYORDER=
